<?xml version="1.0" standalone="no"?>
<!DOCTYPE svg PUBLIC "-//W3C//DTD SVG 20010904//EN"
 "http://www.w3.org/TR/2001/REC-SVG-20010904/DTD/svg10.dtd">
<svg version="1.0" xmlns="http://www.w3.org/2000/svg"
 width="429.000000pt" height="582.000000pt" viewBox="0 0 429.000000 582.000000"
 preserveAspectRatio="xMidYMid meet">

<g transform="translate(0.000000,582.000000) scale(0.100000,-0.100000)"
fill="#FFD700" stroke="none">
<path d="M1428 3186 c17 -22 60 -119 99 -221 16 -42 19 -50 51 -125 10 -25 27
-65 36 -90 10 -25 22 -54 27 -65 44 -107 109 -279 109 -291 0 -19 1 -18 67 26
49 33 55 42 99 145 26 61 62 143 80 183 19 41 34 76 34 80 0 4 10 30 22 59 24
60 47 68 91 33 l25 -20 1 -331 2 -330 -35 -35 c-19 -19 -31 -34 -28 -35 4 0
131 0 284 1 184 1 278 -2 283 -9 11 -19 22 -12 28 17 4 15 17 71 30 125 13 53
21 97 18 97 -3 -1 -26 -28 -51 -61 -81 -109 -136 -139 -270 -146 l-97 -6 -5
69 c-3 38 -6 200 -7 360 -3 315 -5 301 54 322 24 8 -4 11 -127 11 -87 1 -158
4 -158 9 0 12 39 111 60 152 10 20 35 51 55 68 l36 32 -93 -1 c-92 0 -93 0
-61 -16 18 -9 35 -24 38 -33 7 -21 -23 -115 -63 -200 -17 -36 -56 -123 -87
-195 -30 -71 -68 -156 -83 -188 l-27 -58 -39 98 c-21 54 -46 116 -56 138 -16
40 -33 81 -65 165 -21 56 -28 73 -54 132 -24 53 -27 110 -8 126 6 6 28 15 47
20 27 8 0 10 -123 11 l-158 1 19 -24z"/>
</g>
</svg>
